<svg width="412" height="241" viewBox="0 0 412 241" fill="none" xmlns="http://www.w3.org/2000/svg">
<path d="M412 199.531C222.311 333.89 224.879 80.4799 -1 199.531V0H412V199.531Z" fill="url(#paint0_linear_171_3)"/>
<path d="M412.289 199.939C412.096 199.667 411.904 199.395 411.711 199.123C394.328 211.407 376.444 222.171 356.999 229.841C294.725 260.399 235.415 212.283 181.499 183.427C123.607 152.17 53.9843 169.049 -1.15067 199.245L-0.676858 199.531C-0.703324 133.021 -0.729791 66.5104 -0.756257 0L-1 0.243743C136.667 0.188962 274.333 0.13418 412 0.079399L411.921 0C411.939 45.5686 411.957 91.1371 411.975 136.706C411.983 157.648 411.992 178.589 412 199.531C412.008 178.589 412.017 157.648 412.025 136.706C412.043 91.1371 412.061 45.5686 412.079 0L412.079 -0.0794305L412 -0.079399C274.333 -0.13418 136.667 -0.188962 -1 -0.243743L-1.24384 -0.243646L-1.24374 0C-1.27021 66.5104 -1.29668 133.021 -1.32314 199.531L-1.32295 200.067L-0.849332 199.817C54.2702 169.702 123.544 152.989 181.151 184.145C234.738 212.866 294.64 261.455 357.346 230.725C376.901 223.029 394.852 212.24 412.289 199.939ZM411.711 199.123L412.289 199.939L412 200.144L412 199.531L411.711 199.123Z" fill="black"/>
<defs>
<linearGradient id="paint0_linear_171_3" x1="-1" y1="143.181" x2="412" y2="143.181" gradientUnits="userSpaceOnUse">
<stop stop-color="#1A4DFF"/>
<stop offset="0.653846" stop-color="#00D1C7"/>
</linearGradient>
</defs>
</svg>
